<svg width="31" height="43" viewBox="0 0 31 43" fill="none" xmlns="http://www.w3.org/2000/svg">
<rect width="31" height="42.7586" fill="white"/>
<path d="M19.0303 0.99707C20.0194 1.04283 20.9577 1.42869 21.6582 2.08301L29.4688 9.37988L29.6025 9.51172C30.2566 10.1861 30.621 11.0621 30.6211 11.9727V28.3838C30.6211 30.4183 28.8401 32.0681 26.6426 32.0684H4.97363C2.77595 32.0682 0.994141 30.4184 0.994141 28.3838V4.67676C0.994141 2.64211 2.77595 0.992346 4.97363 0.992188H18.8311L19.0303 0.99707ZM4.97363 2.99707C3.97186 2.99723 3.16016 3.74928 3.16016 4.67676V28.3838C3.16016 29.3113 3.97186 30.0633 4.97363 30.0635H26.6426C27.6442 30.0632 28.4561 29.3112 28.4561 28.3838V12.1162H21.2822C20.0446 12.116 19.0411 11.1868 19.041 10.041V3.00781C19.0313 3.00676 19.0215 3.00579 19.0117 3.00488L18.8311 2.99707H4.97363ZM21.207 10.041C21.2071 10.0797 21.2405 10.1111 21.2822 10.1113H27.2031L21.207 4.50879V10.041Z" fill="black"/>
<path d="M15.7462 7.36523L15.8565 7.37096C16.4025 7.42632 16.8284 7.88749 16.8284 8.44814C16.8284 9.00879 16.4025 9.46997 15.8565 9.52532L15.7462 9.53105H6.36025C5.7623 9.53105 5.27734 9.0461 5.27734 8.44814C5.27734 7.85019 5.7623 7.36523 6.36025 7.36523H15.7462Z" fill="black"/>
<path d="M15.7462 12.3477L15.8565 12.3534C16.4025 12.4087 16.8284 12.8699 16.8284 13.4306C16.8284 13.9912 16.4025 14.4524 15.8565 14.5077L15.7462 14.5135H6.36025C5.7623 14.5135 5.27734 14.0285 5.27734 13.4306C5.27734 12.8326 5.7623 12.3477 6.36025 12.3477H15.7462Z" fill="black"/>
<path d="M25.4795 19.7646L25.5898 19.7704C26.1358 19.8257 26.5617 20.2869 26.5617 20.8476C26.5617 21.4082 26.1358 21.8694 25.5898 21.9247L25.4795 21.9305H6.36025C5.7623 21.9305 5.27734 21.4455 5.27734 20.8476C5.27734 20.2496 5.7623 19.7646 6.36025 19.7646H25.4795Z" fill="black"/>
<path d="M18.5594 25.6553H12.7296C12.4096 25.6553 12.1502 25.9147 12.1502 26.2346V33.8823C12.1502 34.2022 11.8908 34.4616 11.5709 34.4616H9.52957C9.01341 34.4616 8.75492 35.0857 9.1199 35.4507L15.2529 41.5837C15.4792 41.81 15.846 41.81 16.0723 41.5837L22.2053 35.4507C22.5703 35.0857 22.3118 34.4616 21.7957 34.4616H19.7182C19.3982 34.4616 19.1388 34.2022 19.1388 33.8823V26.2346C19.1388 25.9147 18.8794 25.6553 18.5594 25.6553Z" fill="#005EA2"/>
</svg>
