<svg width="220" height="49" viewBox="0 0 220 49" fill="none" xmlns="http://www.w3.org/2000/svg">
<g clip-path="url(#clip0_1120_3732)">
<path d="M53.6153 27.3628V36.385H50.6367V16.1924H70.6358V18.7702H53.6153V24.785H67.6572V27.3628H53.6153Z" fill="white"/>
<path d="M74.4648 36.385V16.1924H77.4434V33.8072H94.0384V36.385H74.4648Z" fill="white"/>
<path d="M97.4434 36.385V16.1924H117.442V18.7702H100.422V24.785H114.464V27.3628H100.422V33.8072H117.442V36.385H97.4434Z" fill="white"/>
<path d="M139.993 36.385L131.908 28.222L123.824 36.385H119.994L129.781 26.0739L119.994 16.1924H123.824L131.483 24.3553L139.142 16.1924H142.972L133.611 26.0739L143.823 36.385H139.993Z" fill="white"/>
<path d="M147.229 36.385V16.1924H150.207V36.385H147.229Z" fill="white"/>
<path d="M169.354 37.2442C161.695 37.2442 155.312 32.5183 155.312 26.5034C155.312 20.4886 161.695 15.7627 169.354 15.7627C177.014 15.7627 183.396 20.4886 183.396 26.5034C183.822 32.0886 177.439 37.2442 169.354 37.2442ZM169.354 18.3405C163.397 18.3405 158.291 22.2071 158.291 26.5034C158.291 31.2294 162.972 34.6664 169.354 34.6664C175.312 34.6664 180.418 30.7997 180.418 26.5034C180.418 21.7775 175.737 18.3405 169.354 18.3405Z" fill="white"/>
<path d="M191.906 21.3479V36.3849H188.928V15.7627L209.352 31.659V16.1923H212.331V36.8145L191.906 21.3479Z" fill="white"/>
<path d="M5.10547 27.3626L19.9984 22.207L32.7638 28.6515L19.1474 33.807L5.10547 27.3626Z" fill="#A02816"/>
<path d="M5.10615 27.3626L37.8706 17.0515L43.8278 0.295898L0 15.3329" fill="#ED5338"/>
<path d="M0 15.3328L4.25512 14.0439L20.4246 22.6365L5.10615 27.3625L0 15.3328Z" fill="#DE4829"/>
<path d="M17.8711 33.8069V43.2588L30.6365 38.5328L32.764 28.6514" fill="#ED5338"/>
<path d="M18.2966 33.8076L8.50977 37.6743L11.4884 45.4076L17.871 42.8298L18.2966 33.8076Z" fill="#DE4829"/>
<path d="M11.4883 45.4069L17.871 48.8439V42.8291L11.4883 45.4069Z" fill="#A02816"/>
<path d="M220.416 18.7702C220.416 19.1998 220.416 19.6294 219.991 20.059C219.565 20.4887 219.565 20.9183 219.14 20.9183C218.714 21.3479 218.289 21.7776 217.863 21.7776C217.438 21.7776 217.012 21.7776 216.587 21.3479C216.161 20.9183 215.736 20.9183 215.736 20.4887C215.31 20.059 215.31 19.6294 215.31 19.1998C215.31 18.7702 215.31 18.3405 215.736 17.9109C216.161 17.4813 216.161 17.0516 216.587 17.0516C217.012 16.622 217.438 16.622 217.863 16.622C218.289 16.622 218.714 16.622 219.14 17.0516C219.565 17.4813 219.991 17.4813 219.991 17.9109C220.416 17.9109 220.416 18.3405 220.416 18.7702ZM219.991 18.7702C219.991 18.3405 219.991 17.9109 219.565 17.4813C219.14 17.0516 219.14 16.622 218.714 16.622C218.289 16.622 217.863 16.1924 217.438 16.1924C217.012 16.1924 216.587 16.1924 216.161 16.622C215.736 16.622 215.31 17.0516 215.31 17.4813C214.885 17.9109 214.885 18.3405 214.885 18.7702C214.885 19.1998 214.885 19.6294 215.31 20.059C215.736 20.4887 215.736 20.9183 216.161 20.9183C216.587 21.3479 217.012 21.3479 217.438 21.3479C217.863 21.3479 218.289 21.3479 218.714 20.9183C219.14 20.4887 219.565 20.4887 219.565 20.059C219.991 19.6294 219.991 19.1998 219.991 18.7702ZM218.289 20.4887L217.438 19.1998H217.012V20.4887H216.587V17.0516H217.863C218.289 17.0516 218.714 17.0516 218.714 17.4813C218.714 17.4813 219.14 17.9109 219.14 18.3405C219.14 18.7702 219.14 18.7702 219.14 18.7702L218.714 19.1998L219.565 20.4887H218.289ZM218.289 18.3405C218.289 17.9109 218.289 17.9109 218.289 18.3405C218.289 17.9109 217.863 17.4813 217.863 17.4813H217.438V18.3405H217.863C217.863 18.7702 218.289 18.7702 218.289 18.3405Z" fill="white"/>
</g>
<defs>
<clipPath id="clip0_1120_3732">
<rect width="220" height="49" fill="white"/>
</clipPath>
</defs>
</svg>
